<?xml version="1.0" encoding="UTF-8" standalone="no"?><svg xmlns="http://www.w3.org/2000/svg" xmlns:xlink="http://www.w3.org/1999/xlink" contentScriptType="application/ecmascript" contentStyleType="text/css" height="566px" preserveAspectRatio="none" style="width:399px;height:566px;" version="1.1" viewBox="0 0 399 566" width="399px" zoomAndPan="magnify"><defs><filter height="300%" id="f1sa7o2x5o16rq" width="300%" x="-1" y="-1"><feGaussianBlur result="blurOut" stdDeviation="2.0"/><feColorMatrix in="blurOut" result="blurOut2" type="matrix" values="0 0 0 0 0 0 0 0 0 0 0 0 0 0 0 0 0 0 .4 0"/><feOffset dx="4.0" dy="4.0" in="blurOut2" result="blurOut3"/><feBlend in="SourceGraphic" in2="blurOut3" mode="normal"/></filter></defs><g><rect fill="#FFFFFF" filter="url(#f1sa7o2x5o16rq)" height="29.1328" style="stroke: #A80036; stroke-width: 1.0;" width="10" x="235.5" y="117.4297"/><rect fill="#FFFFFF" filter="url(#f1sa7o2x5o16rq)" height="35.1328" style="stroke: #A80036; stroke-width: 1.0;" width="10" x="235.5" y="217.8281"/><rect fill="#FFFFFF" filter="url(#f1sa7o2x5o16rq)" height="71.2656" style="stroke: #A80036; stroke-width: 1.0;" width="10" x="235.5" y="289.0938"/><rect fill="#FFFFFF" filter="url(#f1sa7o2x5o16rq)" height="71.2656" style="stroke: #A80036; stroke-width: 1.0;" width="10" x="235.5" y="389.4922"/><line style="stroke: #A80036; stroke-width: 1.0; stroke-dasharray: 5.0,5.0;" x1="30" x2="30" y1="86.2969" y2="478.7578"/><line style="stroke: #A80036; stroke-width: 1.0; stroke-dasharray: 5.0,5.0;" x1="240.5" x2="240.5" y1="86.2969" y2="478.7578"/><text fill="#000000" font-family="sans-serif" font-size="14" lengthAdjust="spacingAndGlyphs" textLength="39" x="8" y="82.9951">Client</text><ellipse cx="30.5" cy="13" fill="#FEFECE" filter="url(#f1sa7o2x5o16rq)" rx="8" ry="8" style="stroke: #A80036; stroke-width: 2.0;"/><path d="M30.5,21 L30.5,48 M17.5,29 L43.5,29 M30.5,48 L17.5,63 M30.5,48 L43.5,63 " fill="none" filter="url(#f1sa7o2x5o16rq)" style="stroke: #A80036; stroke-width: 2.0;"/><text fill="#000000" font-family="sans-serif" font-size="14" lengthAdjust="spacingAndGlyphs" textLength="39" x="8" y="490.7529">Client</text><ellipse cx="30.5" cy="504.0547" fill="#FEFECE" filter="url(#f1sa7o2x5o16rq)" rx="8" ry="8" style="stroke: #A80036; stroke-width: 2.0;"/><path d="M30.5,512.0547 L30.5,539.0547 M17.5,520.0547 L43.5,520.0547 M30.5,539.0547 L17.5,554.0547 M30.5,539.0547 L43.5,554.0547 " fill="none" filter="url(#f1sa7o2x5o16rq)" style="stroke: #A80036; stroke-width: 2.0;"/><text fill="#000000" font-family="sans-serif" font-size="14" lengthAdjust="spacingAndGlyphs" textLength="44" x="215.5" y="82.9951">Server</text><ellipse cx="240.5" cy="13" fill="#FEFECE" filter="url(#f1sa7o2x5o16rq)" rx="8" ry="8" style="stroke: #A80036; stroke-width: 2.0;"/><path d="M240.5,21 L240.5,48 M227.5,29 L253.5,29 M240.5,48 L227.5,63 M240.5,48 L253.5,63 " fill="none" filter="url(#f1sa7o2x5o16rq)" style="stroke: #A80036; stroke-width: 2.0;"/><text fill="#000000" font-family="sans-serif" font-size="14" lengthAdjust="spacingAndGlyphs" textLength="44" x="215.5" y="490.7529">Server</text><ellipse cx="240.5" cy="504.0547" fill="#FEFECE" filter="url(#f1sa7o2x5o16rq)" rx="8" ry="8" style="stroke: #A80036; stroke-width: 2.0;"/><path d="M240.5,512.0547 L240.5,539.0547 M227.5,520.0547 L253.5,520.0547 M240.5,539.0547 L227.5,554.0547 M240.5,539.0547 L253.5,554.0547 " fill="none" filter="url(#f1sa7o2x5o16rq)" style="stroke: #A80036; stroke-width: 2.0;"/><rect fill="#FFFFFF" filter="url(#f1sa7o2x5o16rq)" height="29.1328" style="stroke: #A80036; stroke-width: 1.0;" width="10" x="235.5" y="117.4297"/><rect fill="#FFFFFF" filter="url(#f1sa7o2x5o16rq)" height="35.1328" style="stroke: #A80036; stroke-width: 1.0;" width="10" x="235.5" y="217.8281"/><rect fill="#FFFFFF" filter="url(#f1sa7o2x5o16rq)" height="71.2656" style="stroke: #A80036; stroke-width: 1.0;" width="10" x="235.5" y="289.0938"/><rect fill="#FFFFFF" filter="url(#f1sa7o2x5o16rq)" height="71.2656" style="stroke: #A80036; stroke-width: 1.0;" width="10" x="235.5" y="389.4922"/><polygon fill="#A80036" points="223.5,113.4297,233.5,117.4297,223.5,121.4297,227.5,117.4297" style="stroke: #A80036; stroke-width: 1.0;"/><line style="stroke: #A80036; stroke-width: 1.0;" x1="30.5" x2="229.5" y1="117.4297" y2="117.4297"/><text fill="#000000" font-family="sans-serif" font-size="13" lengthAdjust="spacingAndGlyphs" textLength="136" x="37.5" y="112.3638">Initiate Key Exchange</text><polygon fill="#A80036" points="41.5,142.5625,31.5,146.5625,41.5,150.5625,37.5,146.5625" style="stroke: #A80036; stroke-width: 1.0;"/><line style="stroke: #A80036; stroke-width: 1.0;" x1="35.5" x2="239.5" y1="146.5625" y2="146.5625"/><text fill="#000000" font-family="sans-serif" font-size="13" lengthAdjust="spacingAndGlyphs" textLength="101" x="47.5" y="141.4966">Send Public Key</text><line style="stroke: #A80036; stroke-width: 1.0;" x1="30.5" x2="72.5" y1="175.6953" y2="175.6953"/><line style="stroke: #A80036; stroke-width: 1.0;" x1="72.5" x2="72.5" y1="175.6953" y2="188.6953"/><line style="stroke: #A80036; stroke-width: 1.0;" x1="31.5" x2="72.5" y1="188.6953" y2="188.6953"/><polygon fill="#A80036" points="41.5,184.6953,31.5,188.6953,41.5,192.6953,37.5,188.6953" style="stroke: #A80036; stroke-width: 1.0;"/><text fill="#000000" font-family="sans-serif" font-size="13" lengthAdjust="spacingAndGlyphs" textLength="141" x="37.5" y="170.6294">Generate Session Key</text><polygon fill="#A80036" points="223.5,213.8281,233.5,217.8281,223.5,221.8281,227.5,217.8281" style="stroke: #A80036; stroke-width: 1.0;"/><line style="stroke: #A80036; stroke-width: 1.0;" x1="30.5" x2="229.5" y1="217.8281" y2="217.8281"/><text fill="#000000" font-family="sans-serif" font-size="13" lengthAdjust="spacingAndGlyphs" textLength="182" x="37.5" y="212.7622">Send Encrypted Session Key</text><line style="stroke: #A80036; stroke-width: 1.0;" x1="245.5" x2="287.5" y1="251.9609" y2="251.9609"/><line style="stroke: #A80036; stroke-width: 1.0;" x1="287.5" x2="287.5" y1="251.9609" y2="264.9609"/><line style="stroke: #A80036; stroke-width: 1.0;" x1="240.5" x2="287.5" y1="264.9609" y2="264.9609"/><polygon fill="#A80036" points="250.5,260.9609,240.5,264.9609,250.5,268.9609,246.5,264.9609" style="stroke: #A80036; stroke-width: 1.0;"/><text fill="#000000" font-family="sans-serif" font-size="13" lengthAdjust="spacingAndGlyphs" textLength="131" x="252.5" y="246.895">Decrypt Session Key</text><polygon fill="#A80036" points="223.5,285.0938,233.5,289.0938,223.5,293.0938,227.5,289.0938" style="stroke: #A80036; stroke-width: 1.0;"/><line style="stroke: #A80036; stroke-width: 1.0;" x1="30.5" x2="229.5" y1="289.0938" y2="289.0938"/><text fill="#000000" font-family="sans-serif" font-size="13" lengthAdjust="spacingAndGlyphs" textLength="136" x="37.5" y="284.0278">Send Encrypted Data</text><line style="stroke: #A80036; stroke-width: 1.0;" x1="245.5" x2="287.5" y1="318.2266" y2="318.2266"/><line style="stroke: #A80036; stroke-width: 1.0;" x1="287.5" x2="287.5" y1="318.2266" y2="331.2266"/><line style="stroke: #A80036; stroke-width: 1.0;" x1="246.5" x2="287.5" y1="331.2266" y2="331.2266"/><polygon fill="#A80036" points="256.5,327.2266,246.5,331.2266,256.5,335.2266,252.5,331.2266" style="stroke: #A80036; stroke-width: 1.0;"/><text fill="#000000" font-family="sans-serif" font-size="13" lengthAdjust="spacingAndGlyphs" textLength="85" x="252.5" y="313.1606">Decrypt Data</text><polygon fill="#A80036" points="41.5,356.3594,31.5,360.3594,41.5,364.3594,37.5,360.3594" style="stroke: #A80036; stroke-width: 1.0;"/><line style="stroke: #A80036; stroke-width: 1.0;" x1="35.5" x2="239.5" y1="360.3594" y2="360.3594"/><text fill="#000000" font-family="sans-serif" font-size="13" lengthAdjust="spacingAndGlyphs" textLength="146" x="47.5" y="355.2935">Send Acknowledgment</text><polygon fill="#A80036" points="223.5,385.4922,233.5,389.4922,223.5,393.4922,227.5,389.4922" style="stroke: #A80036; stroke-width: 1.0;"/><line style="stroke: #A80036; stroke-width: 1.0;" x1="30.5" x2="229.5" y1="389.4922" y2="389.4922"/><text fill="#000000" font-family="sans-serif" font-size="13" lengthAdjust="spacingAndGlyphs" textLength="186" x="37.5" y="384.4263">Send Further Encrypted Data</text><line style="stroke: #A80036; stroke-width: 1.0;" x1="245.5" x2="287.5" y1="418.625" y2="418.625"/><line style="stroke: #A80036; stroke-width: 1.0;" x1="287.5" x2="287.5" y1="418.625" y2="431.625"/><line style="stroke: #A80036; stroke-width: 1.0;" x1="246.5" x2="287.5" y1="431.625" y2="431.625"/><polygon fill="#A80036" points="256.5,427.625,246.5,431.625,256.5,435.625,252.5,431.625" style="stroke: #A80036; stroke-width: 1.0;"/><text fill="#000000" font-family="sans-serif" font-size="13" lengthAdjust="spacingAndGlyphs" textLength="135" x="252.5" y="413.5591">Decrypt Further Data</text><polygon fill="#A80036" points="41.5,456.7578,31.5,460.7578,41.5,464.7578,37.5,460.7578" style="stroke: #A80036; stroke-width: 1.0;"/><line style="stroke: #A80036; stroke-width: 1.0;" x1="35.5" x2="239.5" y1="460.7578" y2="460.7578"/><text fill="#000000" font-family="sans-serif" font-size="13" lengthAdjust="spacingAndGlyphs" textLength="179" x="47.5" y="455.6919">Send Final Acknowledgment</text><!--MD5=[dcc185988b8ca3c9540274918b38575c]
@startuml
actor Client
actor Server

Client -> Server: Initiate Key Exchange
activate Server
Server -> Client: Send Public Key
deactivate Server

Client -> Client: Generate Session Key
Client -> Server: Send Encrypted Session Key
activate Server
Server -> Server: Decrypt Session Key
deactivate Server

Client -> Server: Send Encrypted Data
activate Server
Server -> Server: Decrypt Data
Server -> Client: Send Acknowledgment
deactivate Server

Client -> Server: Send Further Encrypted Data
activate Server
Server -> Server: Decrypt Further Data
Server -> Client: Send Final Acknowledgment
deactivate Server
@enduml

PlantUML version 1.2020.02(Sun Mar 01 11:22:07 CET 2020)
(GPL source distribution)
Java Runtime: OpenJDK Runtime Environment
JVM: OpenJDK 64-Bit Server VM
Java Version: 11.0.24+8-post-Ubuntu-1ubuntu322.04
Operating System: Linux
Default Encoding: UTF-8
Language: en
Country: US
--></g></svg>