<?xml version="1.0" encoding="UTF-8" standalone="no"?><svg xmlns="http://www.w3.org/2000/svg" xmlns:xlink="http://www.w3.org/1999/xlink" contentScriptType="application/ecmascript" contentStyleType="text/css" height="193px" preserveAspectRatio="none" style="width:544px;height:193px;" version="1.1" viewBox="0 0 544 193" width="544px" zoomAndPan="magnify"><defs><filter height="300%" id="fokknx285gqi2" width="300%" x="-1" y="-1"><feGaussianBlur result="blurOut" stdDeviation="2.0"/><feColorMatrix in="blurOut" result="blurOut2" type="matrix" values="0 0 0 0 0 0 0 0 0 0 0 0 0 0 0 0 0 0 .4 0"/><feOffset dx="4.0" dy="4.0" in="blurOut2" result="blurOut3"/><feBlend in="SourceGraphic" in2="blurOut3" mode="normal"/></filter></defs><g><line style="stroke: #A80036; stroke-width: 1.0; stroke-dasharray: 5.0,5.0;" x1="27" x2="27" y1="86.2969" y2="106.2969"/><line style="stroke: #A80036; stroke-width: 1.0; stroke-dasharray: 5.0,5.0;" x1="105" x2="105" y1="86.2969" y2="106.2969"/><line style="stroke: #A80036; stroke-width: 1.0; stroke-dasharray: 5.0,5.0;" x1="217" x2="217" y1="86.2969" y2="106.2969"/><line style="stroke: #A80036; stroke-width: 1.0; stroke-dasharray: 5.0,5.0;" x1="296" x2="296" y1="86.2969" y2="106.2969"/><line style="stroke: #A80036; stroke-width: 1.0; stroke-dasharray: 5.0,5.0;" x1="373" x2="373" y1="86.2969" y2="106.2969"/><line style="stroke: #A80036; stroke-width: 1.0; stroke-dasharray: 5.0,5.0;" x1="485" x2="485" y1="86.2969" y2="106.2969"/><text fill="#000000" font-family="sans-serif" font-size="14" lengthAdjust="spacingAndGlyphs" textLength="32" x="8" y="82.9951">Alice</text><ellipse cx="27" cy="13" fill="#FEFECE" filter="url(#fokknx285gqi2)" rx="8" ry="8" style="stroke: #A80036; stroke-width: 2.0;"/><path d="M27,21 L27,48 M14,29 L40,29 M27,48 L14,63 M27,48 L40,63 " fill="none" filter="url(#fokknx285gqi2)" style="stroke: #A80036; stroke-width: 2.0;"/><text fill="#000000" font-family="sans-serif" font-size="14" lengthAdjust="spacingAndGlyphs" textLength="32" x="8" y="118.292">Alice</text><ellipse cx="27" cy="131.5938" fill="#FEFECE" filter="url(#fokknx285gqi2)" rx="8" ry="8" style="stroke: #A80036; stroke-width: 2.0;"/><path d="M27,139.5938 L27,166.5938 M14,147.5938 L40,147.5938 M27,166.5938 L14,181.5938 M27,166.5938 L40,181.5938 " fill="none" filter="url(#fokknx285gqi2)" style="stroke: #A80036; stroke-width: 2.0;"/><text fill="#000000" font-family="sans-serif" font-size="14" lengthAdjust="spacingAndGlyphs" textLength="93" x="56" y="82.9951">A's public key</text><ellipse cx="105.5" cy="13" fill="#FEFECE" filter="url(#fokknx285gqi2)" rx="8" ry="8" style="stroke: #A80036; stroke-width: 2.0;"/><path d="M105.5,21 L105.5,48 M92.5,29 L118.5,29 M105.5,48 L92.5,63 M105.5,48 L118.5,63 " fill="none" filter="url(#fokknx285gqi2)" style="stroke: #A80036; stroke-width: 2.0;"/><text fill="#000000" font-family="sans-serif" font-size="14" lengthAdjust="spacingAndGlyphs" textLength="93" x="56" y="118.292">A's public key</text><ellipse cx="105.5" cy="131.5938" fill="#FEFECE" filter="url(#fokknx285gqi2)" rx="8" ry="8" style="stroke: #A80036; stroke-width: 2.0;"/><path d="M105.5,139.5938 L105.5,166.5938 M92.5,147.5938 L118.5,147.5938 M105.5,166.5938 L92.5,181.5938 M105.5,166.5938 L118.5,181.5938 " fill="none" filter="url(#fokknx285gqi2)" style="stroke: #A80036; stroke-width: 2.0;"/><text fill="#000000" font-family="sans-serif" font-size="14" lengthAdjust="spacingAndGlyphs" textLength="98" x="165" y="82.9951">A's private key</text><ellipse cx="217" cy="13" fill="#FEFECE" filter="url(#fokknx285gqi2)" rx="8" ry="8" style="stroke: #A80036; stroke-width: 2.0;"/><path d="M217,21 L217,48 M204,29 L230,29 M217,48 L204,63 M217,48 L230,63 " fill="none" filter="url(#fokknx285gqi2)" style="stroke: #A80036; stroke-width: 2.0;"/><text fill="#000000" font-family="sans-serif" font-size="14" lengthAdjust="spacingAndGlyphs" textLength="98" x="165" y="118.292">A's private key</text><ellipse cx="217" cy="131.5938" fill="#FEFECE" filter="url(#fokknx285gqi2)" rx="8" ry="8" style="stroke: #A80036; stroke-width: 2.0;"/><path d="M217,139.5938 L217,166.5938 M204,147.5938 L230,147.5938 M217,166.5938 L204,181.5938 M217,166.5938 L230,181.5938 " fill="none" filter="url(#fokknx285gqi2)" style="stroke: #A80036; stroke-width: 2.0;"/><text fill="#000000" font-family="sans-serif" font-size="14" lengthAdjust="spacingAndGlyphs" textLength="28" x="279" y="82.9951">Bob</text><ellipse cx="296" cy="13" fill="#FEFECE" filter="url(#fokknx285gqi2)" rx="8" ry="8" style="stroke: #A80036; stroke-width: 2.0;"/><path d="M296,21 L296,48 M283,29 L309,29 M296,48 L283,63 M296,48 L309,63 " fill="none" filter="url(#fokknx285gqi2)" style="stroke: #A80036; stroke-width: 2.0;"/><text fill="#000000" font-family="sans-serif" font-size="14" lengthAdjust="spacingAndGlyphs" textLength="28" x="279" y="118.292">Bob</text><ellipse cx="296" cy="131.5938" fill="#FEFECE" filter="url(#fokknx285gqi2)" rx="8" ry="8" style="stroke: #A80036; stroke-width: 2.0;"/><path d="M296,139.5938 L296,166.5938 M283,147.5938 L309,147.5938 M296,166.5938 L283,181.5938 M296,166.5938 L309,181.5938 " fill="none" filter="url(#fokknx285gqi2)" style="stroke: #A80036; stroke-width: 2.0;"/><text fill="#000000" font-family="sans-serif" font-size="14" lengthAdjust="spacingAndGlyphs" textLength="94" x="323" y="82.9951">B's public key</text><ellipse cx="373" cy="13" fill="#FEFECE" filter="url(#fokknx285gqi2)" rx="8" ry="8" style="stroke: #A80036; stroke-width: 2.0;"/><path d="M373,21 L373,48 M360,29 L386,29 M373,48 L360,63 M373,48 L386,63 " fill="none" filter="url(#fokknx285gqi2)" style="stroke: #A80036; stroke-width: 2.0;"/><text fill="#000000" font-family="sans-serif" font-size="14" lengthAdjust="spacingAndGlyphs" textLength="94" x="323" y="118.292">B's public key</text><ellipse cx="373" cy="131.5938" fill="#FEFECE" filter="url(#fokknx285gqi2)" rx="8" ry="8" style="stroke: #A80036; stroke-width: 2.0;"/><path d="M373,139.5938 L373,166.5938 M360,147.5938 L386,147.5938 M373,166.5938 L360,181.5938 M373,166.5938 L386,181.5938 " fill="none" filter="url(#fokknx285gqi2)" style="stroke: #A80036; stroke-width: 2.0;"/><text fill="#000000" font-family="sans-serif" font-size="14" lengthAdjust="spacingAndGlyphs" textLength="99" x="433" y="82.9951">B's private key</text><ellipse cx="485.5" cy="13" fill="#FEFECE" filter="url(#fokknx285gqi2)" rx="8" ry="8" style="stroke: #A80036; stroke-width: 2.0;"/><path d="M485.5,21 L485.5,48 M472.5,29 L498.5,29 M485.5,48 L472.5,63 M485.5,48 L498.5,63 " fill="none" filter="url(#fokknx285gqi2)" style="stroke: #A80036; stroke-width: 2.0;"/><text fill="#000000" font-family="sans-serif" font-size="14" lengthAdjust="spacingAndGlyphs" textLength="99" x="433" y="118.292">B's private key</text><ellipse cx="485.5" cy="131.5938" fill="#FEFECE" filter="url(#fokknx285gqi2)" rx="8" ry="8" style="stroke: #A80036; stroke-width: 2.0;"/><path d="M485.5,139.5938 L485.5,166.5938 M472.5,147.5938 L498.5,147.5938 M485.5,166.5938 L472.5,181.5938 M485.5,166.5938 L498.5,181.5938 " fill="none" filter="url(#fokknx285gqi2)" style="stroke: #A80036; stroke-width: 2.0;"/><!--MD5=[1011cbe069e7e2b95d93dfb6ad966f55]
@startuml
actor Alice
actor "A's public key" as apubk
actor "A's private key" as aprivk

actor Bob
actor "B's public key" as bpubk
actor "B's private key" as bprivk
@enduml

PlantUML version 1.2020.02(Sun Mar 01 11:22:07 CET 2020)
(GPL source distribution)
Java Runtime: OpenJDK Runtime Environment
JVM: OpenJDK 64-Bit Server VM
Java Version: 11.0.24+8-post-Ubuntu-1ubuntu322.04
Operating System: Linux
Default Encoding: UTF-8
Language: en
Country: US
--></g></svg>