<?xml version="1.0" encoding="UTF-8" standalone="no"?><svg xmlns="http://www.w3.org/2000/svg" xmlns:xlink="http://www.w3.org/1999/xlink" contentScriptType="application/ecmascript" contentStyleType="text/css" height="193px" preserveAspectRatio="none" style="width:119px;height:193px;" version="1.1" viewBox="0 0 119 193" width="119px" zoomAndPan="magnify"><defs><filter height="300%" id="fizu0cqrucgfj" width="300%" x="-1" y="-1"><feGaussianBlur result="blurOut" stdDeviation="2.0"/><feColorMatrix in="blurOut" result="blurOut2" type="matrix" values="0 0 0 0 0 0 0 0 0 0 0 0 0 0 0 0 0 0 .4 0"/><feOffset dx="4.0" dy="4.0" in="blurOut2" result="blurOut3"/><feBlend in="SourceGraphic" in2="blurOut3" mode="normal"/></filter></defs><g><line style="stroke: #A80036; stroke-width: 1.0; stroke-dasharray: 5.0,5.0;" x1="30" x2="30" y1="86.2969" y2="106.2969"/><line style="stroke: #A80036; stroke-width: 1.0; stroke-dasharray: 5.0,5.0;" x1="88" x2="88" y1="86.2969" y2="106.2969"/><text fill="#000000" font-family="sans-serif" font-size="14" lengthAdjust="spacingAndGlyphs" textLength="39" x="8" y="82.9951">Client</text><ellipse cx="30.5" cy="13" fill="#FEFECE" filter="url(#fizu0cqrucgfj)" rx="8" ry="8" style="stroke: #A80036; stroke-width: 2.0;"/><path d="M30.5,21 L30.5,48 M17.5,29 L43.5,29 M30.5,48 L17.5,63 M30.5,48 L43.5,63 " fill="none" filter="url(#fizu0cqrucgfj)" style="stroke: #A80036; stroke-width: 2.0;"/><text fill="#000000" font-family="sans-serif" font-size="14" lengthAdjust="spacingAndGlyphs" textLength="39" x="8" y="118.292">Client</text><ellipse cx="30.5" cy="131.5938" fill="#FEFECE" filter="url(#fizu0cqrucgfj)" rx="8" ry="8" style="stroke: #A80036; stroke-width: 2.0;"/><path d="M30.5,139.5938 L30.5,166.5938 M17.5,147.5938 L43.5,147.5938 M30.5,166.5938 L17.5,181.5938 M30.5,166.5938 L43.5,181.5938 " fill="none" filter="url(#fizu0cqrucgfj)" style="stroke: #A80036; stroke-width: 2.0;"/><text fill="#000000" font-family="sans-serif" font-size="14" lengthAdjust="spacingAndGlyphs" textLength="44" x="63" y="82.9951">Server</text><ellipse cx="88" cy="13" fill="#FEFECE" filter="url(#fizu0cqrucgfj)" rx="8" ry="8" style="stroke: #A80036; stroke-width: 2.0;"/><path d="M88,21 L88,48 M75,29 L101,29 M88,48 L75,63 M88,48 L101,63 " fill="none" filter="url(#fizu0cqrucgfj)" style="stroke: #A80036; stroke-width: 2.0;"/><text fill="#000000" font-family="sans-serif" font-size="14" lengthAdjust="spacingAndGlyphs" textLength="44" x="63" y="118.292">Server</text><ellipse cx="88" cy="131.5938" fill="#FEFECE" filter="url(#fizu0cqrucgfj)" rx="8" ry="8" style="stroke: #A80036; stroke-width: 2.0;"/><path d="M88,139.5938 L88,166.5938 M75,147.5938 L101,147.5938 M88,166.5938 L75,181.5938 M88,166.5938 L101,181.5938 " fill="none" filter="url(#fizu0cqrucgfj)" style="stroke: #A80036; stroke-width: 2.0;"/><!--MD5=[ce1c84951804c6676693bb9ad0480f1a]
@startuml
actor Client
actor Server

@enduml

PlantUML version 1.2020.02(Sun Mar 01 11:22:07 CET 2020)
(GPL source distribution)
Java Runtime: OpenJDK Runtime Environment
JVM: OpenJDK 64-Bit Server VM
Java Version: 11.0.24+8-post-Ubuntu-1ubuntu322.04
Operating System: Linux
Default Encoding: UTF-8
Language: en
Country: US
--></g></svg>