<?xml version="1.0" encoding="UTF-8" standalone="no"?><svg xmlns="http://www.w3.org/2000/svg" xmlns:xlink="http://www.w3.org/1999/xlink" contentScriptType="application/ecmascript" contentStyleType="text/css" height="469px" preserveAspectRatio="none" style="width:838px;height:469px;" version="1.1" viewBox="0 0 838 469" width="838px" zoomAndPan="magnify"><defs><filter height="300%" id="f1poojb16bosyj" width="300%" x="-1" y="-1"><feGaussianBlur result="blurOut" stdDeviation="2.0"/><feColorMatrix in="blurOut" result="blurOut2" type="matrix" values="0 0 0 0 0 0 0 0 0 0 0 0 0 0 0 0 0 0 .4 0"/><feOffset dx="4.0" dy="4.0" in="blurOut2" result="blurOut3"/><feBlend in="SourceGraphic" in2="blurOut3" mode="normal"/></filter></defs><g><!--MD5=[6a441c48ac3fb58ff44095f601c10991]
cluster AliceBox--><rect fill="#FFFFFF" filter="url(#f1poojb16bosyj)" height="356.5" style="stroke: #000000; stroke-width: 1.5;" width="301" x="57" y="101.5"/><text fill="#000000" font-family="sans-serif" font-size="14" font-weight="bold" lengthAdjust="spacingAndGlyphs" textLength="67" x="174" y="116.4951">AliceBox</text><!--MD5=[86b6d1b3b9d5be9f7918ef28c61e2df3]
cluster BobBox--><rect fill="#FFFFFF" filter="url(#f1poojb16bosyj)" height="241.5" style="stroke: #000000; stroke-width: 1.5;" width="372" x="382" y="101.5"/><text fill="#000000" font-family="sans-serif" font-size="14" font-weight="bold" lengthAdjust="spacingAndGlyphs" textLength="59" x="538.5" y="116.4951">BobBox</text><!--MD5=[0037d6fdba3b7d592a828a080098a890]
entity Alice_Public--><rect fill="#FEFECE" filter="url(#f1poojb16bosyj)" height="36.2969" style="stroke: #000000; stroke-width: 1.5;" width="114" x="228" y="155.5"/><text fill="#000000" font-family="sans-serif" font-size="14" lengthAdjust="spacingAndGlyphs" textLength="94" x="238" y="178.4951">A's Public Key</text><!--MD5=[ce24ff80b5c7fde219a2fe6e7ea2556d]
entity Alice_Private--><rect fill="#FEFECE" filter="url(#f1poojb16bosyj)" height="36.2969" style="stroke: #000000; stroke-width: 1.5;" width="119" x="73.5" y="155.5"/><text fill="#000000" font-family="sans-serif" font-size="14" lengthAdjust="spacingAndGlyphs" textLength="99" x="83.5" y="178.4951">A's Private Key</text><!--MD5=[264943882f1d6b7f7bb186891118fba5]
entity DecryptFunc--><rect fill="#FEFECE" filter="url(#f1poojb16bosyj)" height="36.2969" style="stroke: #000000; stroke-width: 1.5;" width="138" x="73" y="291"/><text fill="#000000" font-family="sans-serif" font-size="14" lengthAdjust="spacingAndGlyphs" textLength="118" x="83" y="313.9951">Decrypt Function</text><!--MD5=[6f54d8d9d08ab63a14165fde911ba8c2]
entity Alice_Data--><rect fill="#FEFECE" filter="url(#f1poojb16bosyj)" height="36.2969" style="stroke: #000000; stroke-width: 1.5;" width="52" x="116" y="406"/><text fill="#000000" font-family="sans-serif" font-size="14" lengthAdjust="spacingAndGlyphs" textLength="32" x="126" y="428.9951">Data</text><!--MD5=[0ed20b12bf81e5696a1049dac80e149e]
entity EncryptFunc--><rect fill="#FEFECE" filter="url(#f1poojb16bosyj)" height="36.2969" style="stroke: #000000; stroke-width: 1.5;" width="136" x="542" y="155.5"/><text fill="#000000" font-family="sans-serif" font-size="14" lengthAdjust="spacingAndGlyphs" textLength="116" x="552" y="178.4951">Encrypt Function</text><!--MD5=[6fe7259d1f43163a764fdc81ef12de48]
entity Bob_Public--><rect fill="#FEFECE" filter="url(#f1poojb16bosyj)" height="36.2969" style="stroke: #000000; stroke-width: 1.5;" width="163" x="398.5" y="291"/><text fill="#000000" font-family="sans-serif" font-size="14" lengthAdjust="spacingAndGlyphs" textLength="143" x="408.5" y="313.9951">A's Public Key (Copy)</text><!--MD5=[794f820551367be48704f6d54c1b4753]
entity Bob_Data--><rect fill="#FEFECE" filter="url(#f1poojb16bosyj)" height="36.2969" style="stroke: #000000; stroke-width: 1.5;" width="52" x="611" y="291"/><text fill="#000000" font-family="sans-serif" font-size="14" lengthAdjust="spacingAndGlyphs" textLength="32" x="621" y="313.9951">Data</text><!--MD5=[2c779ae8328ac3f1086abb313344728d]
entity Alice--><ellipse cx="22" cy="142.5" fill="#FEFECE" filter="url(#f1poojb16bosyj)" rx="8" ry="8" style="stroke: #A80036; stroke-width: 1.5;"/><path d="M22,150.5 L22,177.5 M9,158.5 L35,158.5 M22,177.5 L9,192.5 M22,177.5 L35,192.5 " fill="none" filter="url(#f1poojb16bosyj)" style="stroke: #A80036; stroke-width: 1.5;"/><text fill="#000000" font-family="sans-serif" font-size="14" lengthAdjust="spacingAndGlyphs" textLength="32" x="6" y="210.9951">Alice</text><!--MD5=[c88e65a0f892c31524c9bc6fd9ce900f]
entity Bob--><ellipse cx="812" cy="142.5" fill="#FEFECE" filter="url(#f1poojb16bosyj)" rx="8" ry="8" style="stroke: #A80036; stroke-width: 1.5;"/><path d="M812,150.5 L812,177.5 M799,158.5 L825,158.5 M812,177.5 L799,192.5 M812,177.5 L825,192.5 " fill="none" filter="url(#f1poojb16bosyj)" style="stroke: #A80036; stroke-width: 1.5;"/><text fill="#000000" font-family="sans-serif" font-size="14" lengthAdjust="spacingAndGlyphs" textLength="28" x="798" y="210.9951">Bob</text><!--MD5=[b869a5fe58cd59c80d1e8ca90fcd1691]
link Alice to Alice_Public--><path d="M31.19,132.6 C36.43,118.18 44.54,103.16 57,93.5 C75.68,79.02 5.84,76.38 190.5,90.5 C199.24,91.17 202.24,89.41 210,93.5 C235.52,106.95 257.11,132.51 270.48,151.13 " fill="none" id="Alice-&gt;Alice_Public" style="stroke: #A80036; stroke-width: 1.0;"/><polygon fill="#A80036" points="273.37,155.23,271.4451,145.5711,270.4855,151.146,264.9106,150.1863,273.37,155.23" style="stroke: #A80036; stroke-width: 1.0;"/><text fill="#000000" font-family="sans-serif" font-size="13" lengthAdjust="spacingAndGlyphs" textLength="113" x="76.5" y="81.5669">Send copy to Bob</text><!--MD5=[01e073e20ad36849a16b793c2e73371e]
link Alice_Public to Bob_Public--><!--MD5=[39d2714e4241c39e2ab4d1d3945934dc]
link Alice_Private to DecryptFunc--><path d="M134.16,191.68 C135.78,215.71 138.72,259.38 140.51,285.84 " fill="none" id="Alice_Private-&gt;DecryptFunc" style="stroke: #A80036; stroke-width: 1.0;"/><polygon fill="#A80036" points="140.85,290.89,144.2249,281.6374,140.5079,285.9017,136.2437,282.1847,140.85,290.89" style="stroke: #A80036; stroke-width: 1.0;"/><text fill="#000000" font-family="sans-serif" font-size="13" lengthAdjust="spacingAndGlyphs" textLength="94" x="139" y="257.0669">A's Private Key</text><!--MD5=[729adaf608411c491c9986a33d300881]
link DecryptFunc to Alice_Data--><path d="M142,327.16 C142,346.74 142,378.83 142,400.43 " fill="none" id="DecryptFunc-&gt;Alice_Data" style="stroke: #A80036; stroke-width: 1.0;"/><polygon fill="#A80036" points="142,405.68,146,396.68,142,400.68,138,396.68,142,405.68" style="stroke: #A80036; stroke-width: 1.0;"/><text fill="#000000" font-family="sans-serif" font-size="13" lengthAdjust="spacingAndGlyphs" textLength="101" x="143" y="372.0669">Decrypted Data</text><!--MD5=[f02ead5fc9a5f6214d9780f1bd1d169d]
link Bob to EncryptFunc--><path d="M797.4,173.5 C773.61,173.5 724.94,173.5 683.16,173.5 " fill="none" id="Bob-&gt;EncryptFunc" style="stroke: #A80036; stroke-width: 1.0;"/><polygon fill="#A80036" points="678.11,173.5,687.11,177.5,683.11,173.5,687.11,169.5,678.11,173.5" style="stroke: #A80036; stroke-width: 1.0;"/><text fill="#000000" font-family="sans-serif" font-size="13" lengthAdjust="spacingAndGlyphs" textLength="83" x="696.25" y="166.5669">Encrypt Data</text><!--MD5=[89252ada7d21e04908d2d022f7acd633]
link EncryptFunc to Bob_Data--><path d="M613.47,191.68 C618.33,215.71 627.17,259.38 632.52,285.84 " fill="none" id="EncryptFunc-&gt;Bob_Data" style="stroke: #A80036; stroke-width: 1.0;"/><polygon fill="#A80036" points="633.54,290.89,635.6865,281.2779,632.5539,285.9882,627.8436,282.8556,633.54,290.89" style="stroke: #A80036; stroke-width: 1.0;"/><text fill="#000000" font-family="sans-serif" font-size="13" lengthAdjust="spacingAndGlyphs" textLength="99" x="627" y="257.0669">Encrypted Data</text><!--MD5=[a787ad28c7d594998637192a6ccdddac]
link EncryptFunc to Bob_Public--><path d="M541.87,186.53 C508.8,196.16 471.98,213.38 452,244 C443.31,257.32 450.87,273.8 460.32,286.69 " fill="none" id="EncryptFunc-&gt;Bob_Public" style="stroke: #A80036; stroke-width: 1.0;"/><polygon fill="#A80036" points="463.57,290.92,461.2331,281.3524,460.5132,286.9633,454.9023,286.2433,463.57,290.92" style="stroke: #A80036; stroke-width: 1.0;"/><text fill="#000000" font-family="sans-serif" font-size="13" lengthAdjust="spacingAndGlyphs" textLength="162" x="453" y="257.0669">Use A's Public Key (Copy)</text><!--MD5=[ac1a631d4be78b3edb8acfa8e3adbafd]
@startuml
actor Alice
actor Bob

rectangle AliceBox {
    rectangle "A's Public Key" as Alice_Public
    rectangle "A's Private Key" as Alice_Private
    rectangle "Decrypt Function" as DecryptFunc
    rectangle "Data" as Alice_Data
    
    Alice -> Alice_Public : "Send copy to Bob"
}

rectangle BobBox {
    rectangle "Encrypt Function" as EncryptFunc
    rectangle "A's Public Key (Copy)" as Bob_Public
    rectangle "Data" as Bob_Data
}

Alice_Public -[hidden]-> Bob_Public : " "

Alice_Private - -> DecryptFunc : "A's Private Key"
DecryptFunc - -> Alice_Data : "Decrypted Data"

Bob -> EncryptFunc : "Encrypt Data"
EncryptFunc - -> Bob_Data : "Encrypted Data"
EncryptFunc - -> Bob_Public : "Use A's Public Key (Copy)"

@enduml

PlantUML version 1.2020.02(Sun Mar 01 11:22:07 CET 2020)
(GPL source distribution)
Java Runtime: OpenJDK Runtime Environment
JVM: OpenJDK 64-Bit Server VM
Java Version: 11.0.24+8-post-Ubuntu-1ubuntu322.04
Operating System: Linux
Default Encoding: UTF-8
Language: en
Country: US
--></g></svg>