<?xml version="1.0" encoding="UTF-8" standalone="no"?><svg xmlns="http://www.w3.org/2000/svg" xmlns:xlink="http://www.w3.org/1999/xlink" contentScriptType="application/ecmascript" contentStyleType="text/css" height="193px" preserveAspectRatio="none" style="width:98px;height:193px;" version="1.1" viewBox="0 0 98 193" width="98px" zoomAndPan="magnify"><defs><filter height="300%" id="flpdmhs0b6e5i" width="300%" x="-1" y="-1"><feGaussianBlur result="blurOut" stdDeviation="2.0"/><feColorMatrix in="blurOut" result="blurOut2" type="matrix" values="0 0 0 0 0 0 0 0 0 0 0 0 0 0 0 0 0 0 .4 0"/><feOffset dx="4.0" dy="4.0" in="blurOut2" result="blurOut3"/><feBlend in="SourceGraphic" in2="blurOut3" mode="normal"/></filter></defs><g><line style="stroke: #A80036; stroke-width: 1.0; stroke-dasharray: 5.0,5.0;" x1="27" x2="27" y1="86.2969" y2="106.2969"/><line style="stroke: #A80036; stroke-width: 1.0; stroke-dasharray: 5.0,5.0;" x1="73" x2="73" y1="86.2969" y2="106.2969"/><text fill="#000000" font-family="sans-serif" font-size="14" lengthAdjust="spacingAndGlyphs" textLength="32" x="8" y="82.9951">Alice</text><ellipse cx="27" cy="13" fill="#FEFECE" filter="url(#flpdmhs0b6e5i)" rx="8" ry="8" style="stroke: #A80036; stroke-width: 2.0;"/><path d="M27,21 L27,48 M14,29 L40,29 M27,48 L14,63 M27,48 L40,63 " fill="none" filter="url(#flpdmhs0b6e5i)" style="stroke: #A80036; stroke-width: 2.0;"/><text fill="#000000" font-family="sans-serif" font-size="14" lengthAdjust="spacingAndGlyphs" textLength="32" x="8" y="118.292">Alice</text><ellipse cx="27" cy="131.5938" fill="#FEFECE" filter="url(#flpdmhs0b6e5i)" rx="8" ry="8" style="stroke: #A80036; stroke-width: 2.0;"/><path d="M27,139.5938 L27,166.5938 M14,147.5938 L40,147.5938 M27,166.5938 L14,181.5938 M27,166.5938 L40,181.5938 " fill="none" filter="url(#flpdmhs0b6e5i)" style="stroke: #A80036; stroke-width: 2.0;"/><text fill="#000000" font-family="sans-serif" font-size="14" lengthAdjust="spacingAndGlyphs" textLength="28" x="56" y="82.9951">Bob</text><ellipse cx="73" cy="13" fill="#FEFECE" filter="url(#flpdmhs0b6e5i)" rx="8" ry="8" style="stroke: #A80036; stroke-width: 2.0;"/><path d="M73,21 L73,48 M60,29 L86,29 M73,48 L60,63 M73,48 L86,63 " fill="none" filter="url(#flpdmhs0b6e5i)" style="stroke: #A80036; stroke-width: 2.0;"/><text fill="#000000" font-family="sans-serif" font-size="14" lengthAdjust="spacingAndGlyphs" textLength="28" x="56" y="118.292">Bob</text><ellipse cx="73" cy="131.5938" fill="#FEFECE" filter="url(#flpdmhs0b6e5i)" rx="8" ry="8" style="stroke: #A80036; stroke-width: 2.0;"/><path d="M73,139.5938 L73,166.5938 M60,147.5938 L86,147.5938 M73,166.5938 L60,181.5938 M73,166.5938 L86,181.5938 " fill="none" filter="url(#flpdmhs0b6e5i)" style="stroke: #A80036; stroke-width: 2.0;"/><!--MD5=[ce7e9cc0b3006ca322708c2a848f8c5b]
@startuml
actor Alice
actor Bob

@enduml

PlantUML version 1.2020.02(Sun Mar 01 11:22:07 CET 2020)
(GPL source distribution)
Java Runtime: OpenJDK Runtime Environment
JVM: OpenJDK 64-Bit Server VM
Java Version: 11.0.24+8-post-Ubuntu-1ubuntu322.04
Operating System: Linux
Default Encoding: UTF-8
Language: en
Country: US
--></g></svg>